G04*
G04 #@! TF.GenerationSoftware,Altium Limited,Altium Designer,19.0.10 (269)*
G04*
G04 Layer_Color=65535*
%FSLAX25Y25*%
%MOIN*%
G70*
G01*
G75*
%ADD10C,0.00800*%
D10*
X59855Y2228D02*
X61141D01*
X61569Y2371D01*
X61712Y2514D01*
X61855Y2800D01*
Y3228D01*
X61712Y3514D01*
X61569Y3656D01*
X61141Y3799D01*
X59855D01*
Y800D01*
X64240Y3799D02*
X62812D01*
X62669Y2514D01*
X62812Y2657D01*
X63240Y2800D01*
X63669D01*
X64097Y2657D01*
X64383Y2371D01*
X64526Y1943D01*
Y1657D01*
X64383Y1228D01*
X64097Y943D01*
X63669Y800D01*
X63240D01*
X62812Y943D01*
X62669Y1086D01*
X62526Y1371D01*
X114900Y366099D02*
Y363100D01*
Y366099D02*
X116185D01*
X116614Y365956D01*
X116757Y365814D01*
X116900Y365528D01*
Y365242D01*
X116757Y364957D01*
X116614Y364814D01*
X116185Y364671D01*
X114900D01*
X115900D02*
X116900Y363100D01*
X121857Y335099D02*
X121571Y334957D01*
X121286Y334671D01*
X121143Y334385D01*
X121000Y333957D01*
Y333243D01*
X121143Y332814D01*
X121286Y332528D01*
X121571Y332243D01*
X121857Y332100D01*
X122428D01*
X122714Y332243D01*
X123000Y332528D01*
X123142Y332814D01*
X123285Y333243D01*
Y333957D01*
X123142Y334385D01*
X123000Y334671D01*
X122714Y334957D01*
X122428Y335099D01*
X121857D01*
X123985D02*
Y332100D01*
Y335099D02*
X125985Y332100D01*
Y335099D02*
Y332100D01*
X42025Y184902D02*
Y181902D01*
Y184902D02*
X43311D01*
X43739Y184759D01*
X43882Y184616D01*
X44025Y184330D01*
Y184045D01*
X43882Y183759D01*
X43739Y183616D01*
X43311Y183474D01*
X42025D02*
X43311D01*
X43739Y183331D01*
X43882Y183188D01*
X44025Y182902D01*
Y182474D01*
X43882Y182188D01*
X43739Y182045D01*
X43311Y181902D01*
X42025D01*
X44839Y184188D02*
Y184330D01*
X44982Y184616D01*
X45125Y184759D01*
X45410Y184902D01*
X45981D01*
X46267Y184759D01*
X46410Y184616D01*
X46553Y184330D01*
Y184045D01*
X46410Y183759D01*
X46124Y183331D01*
X44696Y181902D01*
X46696D01*
X118910Y2228D02*
X120196D01*
X120624Y2371D01*
X120767Y2514D01*
X120910Y2800D01*
Y3228D01*
X120767Y3514D01*
X120624Y3656D01*
X120196Y3799D01*
X118910D01*
Y800D01*
X123295Y3371D02*
X123152Y3656D01*
X122724Y3799D01*
X122438D01*
X122010Y3656D01*
X121724Y3228D01*
X121581Y2514D01*
Y1800D01*
X121724Y1228D01*
X122010Y943D01*
X122438Y800D01*
X122581D01*
X123009Y943D01*
X123295Y1228D01*
X123438Y1657D01*
Y1800D01*
X123295Y2228D01*
X123009Y2514D01*
X122581Y2657D01*
X122438D01*
X122010Y2514D01*
X121724Y2228D01*
X121581Y1800D01*
X89825Y184902D02*
Y181902D01*
Y184902D02*
X91111D01*
X91539Y184759D01*
X91682Y184616D01*
X91825Y184330D01*
Y184045D01*
X91682Y183759D01*
X91539Y183616D01*
X91111Y183474D01*
X89825D02*
X91111D01*
X91539Y183331D01*
X91682Y183188D01*
X91825Y182902D01*
Y182474D01*
X91682Y182188D01*
X91539Y182045D01*
X91111Y181902D01*
X89825D01*
X92782Y184902D02*
X94353D01*
X93496Y183759D01*
X93924D01*
X94210Y183616D01*
X94353Y183474D01*
X94496Y183045D01*
Y182759D01*
X94353Y182331D01*
X94067Y182045D01*
X93639Y181902D01*
X93210D01*
X92782Y182045D01*
X92639Y182188D01*
X92496Y182474D01*
X-7074Y183762D02*
Y180763D01*
Y183762D02*
X-5789D01*
X-5360Y183619D01*
X-5217Y183477D01*
X-5074Y183191D01*
Y182905D01*
X-5217Y182620D01*
X-5360Y182477D01*
X-5789Y182334D01*
X-7074D02*
X-5789D01*
X-5360Y182191D01*
X-5217Y182048D01*
X-5074Y181763D01*
Y181334D01*
X-5217Y181049D01*
X-5360Y180906D01*
X-5789Y180763D01*
X-7074D01*
X-4403Y183191D02*
X-4118Y183334D01*
X-3689Y183762D01*
Y180763D01*
X138595Y184902D02*
Y181902D01*
Y184902D02*
X139881D01*
X140309Y184759D01*
X140452Y184616D01*
X140595Y184330D01*
Y184045D01*
X140452Y183759D01*
X140309Y183616D01*
X139881Y183474D01*
X138595D02*
X139881D01*
X140309Y183331D01*
X140452Y183188D01*
X140595Y182902D01*
Y182474D01*
X140452Y182188D01*
X140309Y182045D01*
X139881Y181902D01*
X138595D01*
X142694Y184902D02*
X141266Y182902D01*
X143409D01*
X142694Y184902D02*
Y181902D01*
X59855Y77861D02*
X61141D01*
X61569Y78003D01*
X61712Y78146D01*
X61855Y78432D01*
Y78860D01*
X61712Y79146D01*
X61569Y79289D01*
X61141Y79432D01*
X59855D01*
Y76432D01*
X62669Y78717D02*
Y78860D01*
X62812Y79146D01*
X62954Y79289D01*
X63240Y79432D01*
X63811D01*
X64097Y79289D01*
X64240Y79146D01*
X64383Y78860D01*
Y78575D01*
X64240Y78289D01*
X63954Y77861D01*
X62526Y76432D01*
X64526D01*
X118910Y77861D02*
X120196D01*
X120624Y78003D01*
X120767Y78146D01*
X120910Y78432D01*
Y78860D01*
X120767Y79146D01*
X120624Y79289D01*
X120196Y79432D01*
X118910D01*
Y76432D01*
X121867Y79432D02*
X123438D01*
X122581Y78289D01*
X123009D01*
X123295Y78146D01*
X123438Y78003D01*
X123581Y77575D01*
Y77289D01*
X123438Y76861D01*
X123152Y76575D01*
X122724Y76432D01*
X122295D01*
X121867Y76575D01*
X121724Y76718D01*
X121581Y77004D01*
X104800Y365899D02*
Y362900D01*
X106514D01*
X800Y2228D02*
X2085D01*
X2514Y2371D01*
X2657Y2514D01*
X2800Y2800D01*
Y3228D01*
X2657Y3514D01*
X2514Y3656D01*
X2085Y3799D01*
X800D01*
Y800D01*
X4899Y3799D02*
X3471Y1800D01*
X5613D01*
X4899Y3799D02*
Y800D01*
X800Y77861D02*
X2085D01*
X2514Y78003D01*
X2657Y78146D01*
X2800Y78432D01*
Y78860D01*
X2657Y79146D01*
X2514Y79289D01*
X2085Y79432D01*
X800D01*
Y76432D01*
X3471Y78860D02*
X3757Y79003D01*
X4185Y79432D01*
Y76432D01*
M02*
