G04*
G04 #@! TF.GenerationSoftware,Altium Limited,Altium Designer,19.0.10 (269)*
G04*
G04 Layer_Physical_Order=2*
G04 Layer_Color=16711680*
%FSLAX25Y25*%
%MOIN*%
G70*
G01*
G75*
%ADD46C,0.02000*%
%ADD47C,0.01000*%
%ADD48C,0.07874*%
%ADD49C,0.19685*%
%ADD50R,0.17717X0.07874*%
%ADD51R,0.07874X0.15748*%
%ADD52C,0.10000*%
%ADD53C,0.05906*%
%ADD54R,0.05906X0.05906*%
%ADD55R,0.11811X0.11811*%
%ADD56C,0.07087*%
%ADD57C,0.07087*%
%ADD58C,0.02362*%
G36*
X185825Y-21508D02*
X-12021D01*
X-12374Y-21154D01*
X-11975Y372392D01*
X-11575Y372792D01*
X185825D01*
Y-21508D01*
D02*
G37*
%LPC*%
G36*
X115625Y360470D02*
X114570Y360331D01*
X113586Y359924D01*
X112741Y359276D01*
X112093Y358431D01*
X111686Y357448D01*
X111547Y356392D01*
X111686Y355337D01*
X112093Y354353D01*
X112741Y353508D01*
X113586Y352860D01*
X114570Y352453D01*
X114606Y352448D01*
Y334073D01*
X114683Y333683D01*
X114904Y333352D01*
X117924Y330332D01*
X117664Y329924D01*
X116681Y330331D01*
X115625Y330470D01*
X114570Y330331D01*
X113586Y329924D01*
X112741Y329276D01*
X112093Y328431D01*
X111686Y327448D01*
X111547Y326392D01*
X111686Y325337D01*
X112093Y324353D01*
X112741Y323508D01*
X113586Y322860D01*
X113628Y322843D01*
Y305013D01*
X113128Y304913D01*
X113116Y304941D01*
X112563Y305663D01*
X111841Y306216D01*
X111001Y306564D01*
X110100Y306683D01*
X109199Y306564D01*
X108359Y306216D01*
X107638Y305663D01*
X107145Y305020D01*
X106838Y305061D01*
X106645Y305155D01*
Y322448D01*
X106681Y322453D01*
X107664Y322860D01*
X108509Y323508D01*
X109157Y324353D01*
X109564Y325337D01*
X109703Y326392D01*
X109564Y327448D01*
X109157Y328431D01*
X108509Y329276D01*
X107664Y329924D01*
X106681Y330331D01*
X105625Y330470D01*
X104570Y330331D01*
X103586Y329924D01*
X102742Y329276D01*
X102445Y328889D01*
X101945Y329059D01*
Y351270D01*
X103557Y352882D01*
X103586Y352860D01*
X104570Y352453D01*
X105625Y352314D01*
X106681Y352453D01*
X107664Y352860D01*
X108509Y353508D01*
X109157Y354353D01*
X109564Y355337D01*
X109703Y356392D01*
X109564Y357448D01*
X109157Y358431D01*
X108509Y359276D01*
X107664Y359924D01*
X106681Y360331D01*
X105625Y360470D01*
X104570Y360331D01*
X103586Y359924D01*
X102742Y359276D01*
X102093Y358431D01*
X101686Y357448D01*
X101547Y356392D01*
X101686Y355337D01*
X102093Y354353D01*
X102115Y354324D01*
X100204Y352413D01*
X99983Y352082D01*
X99906Y351692D01*
Y322492D01*
X99983Y322102D01*
X100204Y321771D01*
X103033Y318942D01*
Y305822D01*
X102728Y305719D01*
X102533Y305685D01*
X101841Y306216D01*
X101001Y306564D01*
X100100Y306683D01*
X99199Y306564D01*
X98359Y306216D01*
X97637Y305663D01*
X97084Y304941D01*
X96736Y304101D01*
X96618Y303200D01*
X96736Y302299D01*
X97084Y301459D01*
X97637Y300738D01*
X98359Y300184D01*
X99080Y299885D01*
Y285889D01*
X95710Y282519D01*
X95420Y282240D01*
X95032Y282527D01*
X91120Y286440D01*
Y299885D01*
X91841Y300184D01*
X92563Y300738D01*
X93116Y301459D01*
X93464Y302299D01*
X93583Y303200D01*
X93464Y304101D01*
X93116Y304941D01*
X92563Y305663D01*
X91841Y306216D01*
X91001Y306564D01*
X90100Y306683D01*
X89199Y306564D01*
X88359Y306216D01*
X87638Y305663D01*
X87084Y304941D01*
X87055Y304870D01*
X86555Y304970D01*
Y337313D01*
X86438Y337899D01*
X86107Y338395D01*
X83884Y340618D01*
Y347329D01*
X65167D01*
Y338455D01*
X81721D01*
X83496Y336680D01*
Y305268D01*
X82996Y305098D01*
X82563Y305663D01*
X81841Y306216D01*
X81001Y306564D01*
X80100Y306683D01*
X79199Y306564D01*
X78359Y306216D01*
X77637Y305663D01*
X77084Y304941D01*
X76736Y304101D01*
X76617Y303200D01*
X76736Y302299D01*
X77035Y301577D01*
X72970Y297512D01*
X71547D01*
X71120Y297937D01*
Y299885D01*
X71841Y300184D01*
X72562Y300738D01*
X73116Y301459D01*
X73464Y302299D01*
X73583Y303200D01*
X73464Y304101D01*
X73116Y304941D01*
X72562Y305663D01*
X71841Y306216D01*
X71001Y306564D01*
X70100Y306683D01*
X69199Y306564D01*
X68359Y306216D01*
X67637Y305663D01*
X67084Y304941D01*
X66736Y304101D01*
X66618Y303200D01*
X66736Y302299D01*
X67084Y301459D01*
X67637Y300738D01*
X68359Y300184D01*
X69080Y299885D01*
Y297589D01*
X53582Y282091D01*
X53361Y281760D01*
X53283Y281370D01*
Y258758D01*
X52783Y258606D01*
X52512Y259012D01*
X51956Y259384D01*
X51300Y259514D01*
X50644Y259384D01*
X50088Y259012D01*
X49716Y258456D01*
X49697Y258360D01*
X34966Y243629D01*
X31837D01*
X31756Y243684D01*
X31100Y243814D01*
X30444Y243684D01*
X29888Y243312D01*
X29516Y242756D01*
X29386Y242100D01*
X29516Y241444D01*
X29888Y240888D01*
X30444Y240516D01*
X31100Y240386D01*
X31756Y240516D01*
X31837Y240571D01*
X35600D01*
X36185Y240687D01*
X36681Y241019D01*
X51860Y256197D01*
X51956Y256216D01*
X52512Y256588D01*
X52783Y256994D01*
X53283Y256842D01*
Y215545D01*
X52783Y215375D01*
X52562Y215663D01*
X51841Y216216D01*
X51001Y216564D01*
X50100Y216683D01*
X49199Y216564D01*
X48359Y216216D01*
X47638Y215663D01*
X47084Y214941D01*
X46736Y214101D01*
X46617Y213200D01*
X46736Y212299D01*
X47084Y211459D01*
X47638Y210737D01*
X48359Y210184D01*
X49199Y209836D01*
X50100Y209717D01*
X51001Y209836D01*
X51841Y210184D01*
X52562Y210737D01*
X52783Y211025D01*
X53283Y210855D01*
Y205426D01*
X50899Y203042D01*
X50438Y203288D01*
X50439Y203292D01*
X50309Y203948D01*
X49937Y204504D01*
X49381Y204876D01*
X48725Y205006D01*
X48069Y204876D01*
X47513Y204504D01*
X47142Y203948D01*
X47011Y203292D01*
X47056Y203065D01*
X44003Y200012D01*
X10766D01*
X10637Y200204D01*
X10081Y200576D01*
X9425Y200706D01*
X8769Y200576D01*
X8213Y200204D01*
X7842Y199648D01*
X7711Y198992D01*
X7842Y198336D01*
X8213Y197780D01*
X8769Y197409D01*
X9425Y197278D01*
X10081Y197409D01*
X10637Y197780D01*
X10766Y197973D01*
X44425D01*
X44815Y198050D01*
X45146Y198271D01*
X48282Y201407D01*
X48520Y201370D01*
X48693Y200836D01*
X48204Y200347D01*
X47983Y200016D01*
X47906Y199626D01*
Y190251D01*
X47406Y189983D01*
X47256Y190084D01*
X47160Y190103D01*
X42689Y194574D01*
X42193Y194905D01*
X41608Y195021D01*
X17225D01*
X16640Y194905D01*
X16144Y194574D01*
X9892Y188321D01*
X580D01*
X499Y188376D01*
X-157Y188506D01*
X-813Y188376D01*
X-1369Y188004D01*
X-1740Y187448D01*
X-1871Y186792D01*
X-1740Y186136D01*
X-1369Y185580D01*
X-813Y185209D01*
X-157Y185078D01*
X499Y185209D01*
X580Y185263D01*
X10525D01*
X11111Y185379D01*
X11607Y185711D01*
X17859Y191963D01*
X20349D01*
X20500Y191463D01*
X20113Y191204D01*
X19742Y190648D01*
X19611Y189992D01*
X19656Y189765D01*
X16504Y186613D01*
X16283Y186282D01*
X16206Y185892D01*
Y147892D01*
X16283Y147502D01*
X16504Y147171D01*
X23556Y140119D01*
X23511Y139892D01*
X23642Y139236D01*
X24013Y138680D01*
X24569Y138309D01*
X25225Y138178D01*
X25881Y138309D01*
X26437Y138680D01*
X26566Y138873D01*
X42110D01*
X42302Y138411D01*
X32952Y129061D01*
X32725Y129106D01*
X32069Y128976D01*
X31513Y128604D01*
X31142Y128048D01*
X31011Y127392D01*
X31142Y126736D01*
X31513Y126180D01*
X31706Y126052D01*
Y88115D01*
X23604Y80013D01*
X23383Y79682D01*
X23306Y79292D01*
Y62393D01*
X23142Y62148D01*
X23011Y61492D01*
X23142Y60836D01*
X23513Y60280D01*
X24069Y59909D01*
X24725Y59778D01*
X25381Y59909D01*
X25937Y60280D01*
X26309Y60836D01*
X26439Y61492D01*
X26309Y62148D01*
X25937Y62704D01*
X25381Y63076D01*
X25345Y63083D01*
Y72942D01*
X25845Y73112D01*
X26123Y72749D01*
X26968Y72101D01*
X27952Y71693D01*
X29007Y71554D01*
X30063Y71693D01*
X31046Y72101D01*
X31891Y72749D01*
X32539Y73593D01*
X32787Y74191D01*
X33287Y74092D01*
Y64296D01*
X31452Y62461D01*
X31225Y62506D01*
X30569Y62376D01*
X30013Y62004D01*
X29642Y61448D01*
X29511Y60792D01*
X29642Y60136D01*
X30013Y59580D01*
X30569Y59209D01*
X31225Y59078D01*
X31881Y59209D01*
X32437Y59580D01*
X32809Y60136D01*
X32939Y60792D01*
X32894Y61019D01*
X35027Y63152D01*
X35248Y63483D01*
X35326Y63873D01*
Y72805D01*
X35799Y72966D01*
X35966Y72749D01*
X36810Y72101D01*
X37794Y71693D01*
X38850Y71554D01*
X39905Y71693D01*
X40889Y72101D01*
X41733Y72749D01*
X42382Y73593D01*
X42789Y74577D01*
X42928Y75632D01*
X42789Y76688D01*
X42382Y77671D01*
X41733Y78516D01*
X40889Y79164D01*
X39905Y79571D01*
X38850Y79711D01*
X37794Y79571D01*
X36810Y79164D01*
X35966Y78516D01*
X35799Y78299D01*
X35326Y78460D01*
Y125351D01*
X47548Y137573D01*
X52585D01*
X52713Y137380D01*
X53269Y137009D01*
X53925Y136878D01*
X54581Y137009D01*
X55137Y137380D01*
X55509Y137936D01*
X55639Y138592D01*
X55509Y139248D01*
X55137Y139804D01*
X54945Y139933D01*
Y145364D01*
X81916Y172336D01*
X82138Y172666D01*
X82215Y173057D01*
Y181273D01*
X90614Y189673D01*
X100385D01*
X100513Y189480D01*
X101069Y189109D01*
X101725Y188978D01*
X102381Y189109D01*
X102937Y189480D01*
X103309Y190036D01*
X103439Y190692D01*
X103309Y191348D01*
X102937Y191904D01*
X102381Y192276D01*
X101874Y192376D01*
X101804Y192473D01*
X102056Y192973D01*
X113391D01*
X123172Y183191D01*
Y180367D01*
X123034Y180349D01*
X121954Y179902D01*
X121027Y179191D01*
X120316Y178264D01*
X119869Y177184D01*
X119851Y177046D01*
X102942D01*
X102924Y177184D01*
X102477Y178264D01*
X101766Y179191D01*
X100839Y179902D01*
X99760Y180349D01*
X98601Y180501D01*
X97443Y180349D01*
X96364Y179902D01*
X95437Y179191D01*
X94726Y178264D01*
X94279Y177184D01*
X94126Y176026D01*
X94279Y174868D01*
X94726Y173788D01*
X95437Y172862D01*
X96364Y172150D01*
X97443Y171703D01*
X98601Y171551D01*
X99760Y171703D01*
X100839Y172150D01*
X101766Y172862D01*
X102477Y173788D01*
X102924Y174868D01*
X102942Y175006D01*
X119851D01*
X119869Y174868D01*
X120316Y173788D01*
X121027Y172862D01*
X121954Y172150D01*
X123034Y171703D01*
X124192Y171551D01*
X125350Y171703D01*
X126429Y172150D01*
X127356Y172862D01*
X128068Y173788D01*
X128515Y174868D01*
X128667Y176026D01*
X128515Y177184D01*
X128068Y178264D01*
X127356Y179191D01*
X126429Y179902D01*
X125350Y180349D01*
X125212Y180367D01*
Y182620D01*
X125673Y182811D01*
X133180Y175305D01*
X133510Y175084D01*
X133901Y175006D01*
X143694D01*
X143712Y174868D01*
X144159Y173788D01*
X144870Y172862D01*
X145797Y172150D01*
X146876Y171703D01*
X148035Y171551D01*
X149193Y171703D01*
X150272Y172150D01*
X151199Y172862D01*
X151910Y173788D01*
X152357Y174868D01*
X152376Y175006D01*
X169284D01*
X169302Y174868D01*
X169749Y173788D01*
X170461Y172862D01*
X171388Y172150D01*
X172467Y171703D01*
X173625Y171551D01*
X174784Y171703D01*
X175863Y172150D01*
X176790Y172862D01*
X177501Y173788D01*
X177948Y174868D01*
X178101Y176026D01*
X177948Y177184D01*
X177501Y178264D01*
X176790Y179191D01*
X175863Y179902D01*
X174784Y180349D01*
X173625Y180501D01*
X172467Y180349D01*
X171388Y179902D01*
X170461Y179191D01*
X169749Y178264D01*
X169302Y177184D01*
X169284Y177046D01*
X152376D01*
X152357Y177184D01*
X151910Y178264D01*
X151199Y179191D01*
X150272Y179902D01*
X149193Y180349D01*
X148035Y180501D01*
X146876Y180349D01*
X145797Y179902D01*
X144870Y179191D01*
X144159Y178264D01*
X143712Y177184D01*
X143694Y177046D01*
X134323D01*
X126141Y185228D01*
X126387Y185688D01*
X126400Y185686D01*
X127056Y185816D01*
X127612Y186188D01*
X127984Y186744D01*
X128003Y186840D01*
X135233Y194071D01*
X142363D01*
X142444Y194016D01*
X142540Y193997D01*
X151319Y185219D01*
X151467Y185119D01*
X151488Y185088D01*
X152044Y184716D01*
X152700Y184586D01*
X153356Y184716D01*
X153912Y185088D01*
X154284Y185644D01*
X154414Y186300D01*
X154284Y186956D01*
X153912Y187512D01*
X153356Y187884D01*
X152886Y187977D01*
X144703Y196160D01*
X144684Y196256D01*
X144312Y196812D01*
X144296Y196823D01*
X144448Y197322D01*
X157884D01*
X158113Y196980D01*
X158669Y196609D01*
X159325Y196478D01*
X159981Y196609D01*
X160537Y196980D01*
X160909Y197536D01*
X161039Y198192D01*
X160909Y198848D01*
X160537Y199404D01*
X159981Y199776D01*
X159325Y199906D01*
X158669Y199776D01*
X158113Y199404D01*
X158085Y199362D01*
X121166D01*
X120937Y199704D01*
X120381Y200076D01*
X119725Y200206D01*
X119069Y200076D01*
X118513Y199704D01*
X118142Y199148D01*
X118011Y198492D01*
X118142Y197836D01*
X118513Y197280D01*
X119069Y196909D01*
X119725Y196778D01*
X120381Y196909D01*
X120937Y197280D01*
X120966Y197322D01*
X133578D01*
X133730Y196823D01*
X133519Y196681D01*
X125840Y189003D01*
X125744Y188984D01*
X125188Y188612D01*
X124816Y188056D01*
X124686Y187400D01*
X124688Y187387D01*
X124228Y187141D01*
X115155Y196213D01*
X114825Y196434D01*
X114435Y196512D01*
X102448D01*
X97167Y201792D01*
Y210578D01*
X97472Y210681D01*
X97667Y210715D01*
X98359Y210184D01*
X99199Y209836D01*
X100100Y209717D01*
X101001Y209836D01*
X101841Y210184D01*
X102563Y210737D01*
X103116Y211459D01*
X103464Y212299D01*
X103583Y213200D01*
X103464Y214101D01*
X103116Y214941D01*
X102563Y215663D01*
X101841Y216216D01*
X101001Y216564D01*
X100100Y216683D01*
X99199Y216564D01*
X98359Y216216D01*
X97667Y215685D01*
X97472Y215719D01*
X97167Y215822D01*
Y281092D01*
X100821Y284746D01*
X101042Y285077D01*
X101120Y285467D01*
Y299885D01*
X101841Y300184D01*
X102533Y300715D01*
X102728Y300681D01*
X103033Y300578D01*
Y284115D01*
X100804Y281886D01*
X100583Y281555D01*
X100506Y281165D01*
Y251492D01*
X100583Y251102D01*
X100804Y250771D01*
X109080Y242495D01*
Y216515D01*
X108359Y216216D01*
X107638Y215663D01*
X107084Y214941D01*
X106736Y214101D01*
X106617Y213200D01*
X106736Y212299D01*
X107084Y211459D01*
X107638Y210737D01*
X108359Y210184D01*
X109199Y209836D01*
X110100Y209717D01*
X111001Y209836D01*
X111841Y210184D01*
X112563Y210737D01*
X113116Y211459D01*
X113464Y212299D01*
X113583Y213200D01*
X113464Y214101D01*
X113116Y214941D01*
X112563Y215663D01*
X111841Y216216D01*
X111120Y216515D01*
Y242917D01*
X111042Y243307D01*
X110821Y243638D01*
X102545Y251915D01*
Y280742D01*
X104144Y282341D01*
X104606Y282150D01*
Y254092D01*
X104683Y253702D01*
X104904Y253371D01*
X109056Y249219D01*
X109011Y248992D01*
X109142Y248336D01*
X109513Y247780D01*
X110069Y247409D01*
X110725Y247278D01*
X111381Y247409D01*
X111937Y247780D01*
X112309Y248336D01*
X112439Y248992D01*
X112309Y249648D01*
X111937Y250204D01*
X111381Y250576D01*
X110725Y250706D01*
X110498Y250661D01*
X106645Y254515D01*
Y301245D01*
X106838Y301339D01*
X107145Y301380D01*
X107638Y300738D01*
X108359Y300184D01*
X109199Y299836D01*
X110100Y299717D01*
X111001Y299836D01*
X111841Y300184D01*
X112563Y300738D01*
X113116Y301459D01*
X113128Y301487D01*
X113628Y301388D01*
Y283837D01*
X110790Y280999D01*
X110169Y280876D01*
X109613Y280504D01*
X109242Y279948D01*
X109111Y279292D01*
X109242Y278636D01*
X109613Y278080D01*
X110169Y277709D01*
X110825Y277578D01*
X111481Y277709D01*
X112037Y278080D01*
X112409Y278636D01*
X112539Y279292D01*
X112444Y279769D01*
X115368Y282693D01*
X115563Y282712D01*
X119080Y279195D01*
Y216515D01*
X118359Y216216D01*
X117638Y215663D01*
X117084Y214941D01*
X116736Y214101D01*
X116618Y213200D01*
X116736Y212299D01*
X117084Y211459D01*
X117638Y210737D01*
X118359Y210184D01*
X119199Y209836D01*
X120100Y209717D01*
X121001Y209836D01*
X121841Y210184D01*
X122563Y210737D01*
X123116Y211459D01*
X123464Y212299D01*
X123583Y213200D01*
X123464Y214101D01*
X123116Y214941D01*
X122563Y215663D01*
X121841Y216216D01*
X121120Y216515D01*
Y279617D01*
X121042Y280008D01*
X120821Y280338D01*
X117167Y283992D01*
Y300578D01*
X117472Y300681D01*
X117667Y300715D01*
X118359Y300184D01*
X119199Y299836D01*
X120100Y299717D01*
X121001Y299836D01*
X121841Y300184D01*
X122563Y300738D01*
X123116Y301459D01*
X123464Y302299D01*
X123583Y303200D01*
X123464Y304101D01*
X123116Y304941D01*
X122563Y305663D01*
X121841Y306216D01*
X121001Y306564D01*
X120100Y306683D01*
X119199Y306564D01*
X118359Y306216D01*
X117667Y305685D01*
X117472Y305719D01*
X117167Y305822D01*
Y318292D01*
X120889Y322014D01*
X121110Y322345D01*
X121188Y322735D01*
Y329530D01*
X121110Y329920D01*
X120889Y330251D01*
X116645Y334496D01*
Y352448D01*
X116681Y352453D01*
X117664Y352860D01*
X118509Y353508D01*
X119157Y354353D01*
X119564Y355337D01*
X119703Y356392D01*
X119564Y357448D01*
X119157Y358431D01*
X118509Y359276D01*
X117664Y359924D01*
X116681Y360331D01*
X115625Y360470D01*
D02*
G37*
G36*
X60065Y337487D02*
X51191D01*
Y320739D01*
X60065D01*
Y337487D01*
D02*
G37*
G36*
X13553Y306653D02*
X6647D01*
Y299747D01*
X13553D01*
Y306653D01*
D02*
G37*
G36*
X50100Y306683D02*
X49199Y306564D01*
X48359Y306216D01*
X47638Y305663D01*
X47084Y304941D01*
X46736Y304101D01*
X46617Y303200D01*
X46736Y302299D01*
X47035Y301577D01*
X11504Y266046D01*
X11445Y265957D01*
X10945Y266109D01*
Y272603D01*
X38477Y300135D01*
X39199Y299836D01*
X40100Y299717D01*
X41001Y299836D01*
X41841Y300184D01*
X42562Y300738D01*
X43116Y301459D01*
X43464Y302299D01*
X43583Y303200D01*
X43464Y304101D01*
X43116Y304941D01*
X42562Y305663D01*
X41841Y306216D01*
X41001Y306564D01*
X40100Y306683D01*
X39199Y306564D01*
X38359Y306216D01*
X37637Y305663D01*
X37084Y304941D01*
X36736Y304101D01*
X36617Y303200D01*
X36736Y302299D01*
X37035Y301577D01*
X9204Y273746D01*
X8983Y273415D01*
X8906Y273025D01*
Y264304D01*
X8845Y264263D01*
X8345Y264526D01*
Y280003D01*
X28477Y300135D01*
X29199Y299836D01*
X30100Y299717D01*
X31001Y299836D01*
X31841Y300184D01*
X32563Y300738D01*
X33116Y301459D01*
X33464Y302299D01*
X33583Y303200D01*
X33464Y304101D01*
X33116Y304941D01*
X32563Y305663D01*
X31841Y306216D01*
X31001Y306564D01*
X30100Y306683D01*
X29199Y306564D01*
X28359Y306216D01*
X27637Y305663D01*
X27084Y304941D01*
X26736Y304101D01*
X26618Y303200D01*
X26736Y302299D01*
X27035Y301577D01*
X6604Y281146D01*
X6383Y280815D01*
X6306Y280425D01*
Y262133D01*
X6113Y262004D01*
X5742Y261448D01*
X5611Y260792D01*
X5742Y260136D01*
X6113Y259580D01*
X6669Y259209D01*
X7325Y259078D01*
X7981Y259209D01*
X8537Y259580D01*
X8909Y260136D01*
X8981Y260500D01*
X9203Y260814D01*
X9523Y260858D01*
X9925Y260778D01*
X10250Y260843D01*
X10595Y260880D01*
X10793Y260480D01*
X10842Y260236D01*
X11213Y259680D01*
X11769Y259309D01*
X12425Y259178D01*
X13081Y259309D01*
X13637Y259680D01*
X14009Y260236D01*
X14139Y260892D01*
X14009Y261548D01*
X13637Y262104D01*
X13245Y262366D01*
Y264903D01*
X36474Y288132D01*
X36888Y287839D01*
X36750Y286792D01*
X36902Y285634D01*
X37350Y284555D01*
X38061Y283628D01*
X38988Y282916D01*
X40067Y282469D01*
X41225Y282317D01*
X42384Y282469D01*
X43463Y282916D01*
X44390Y283628D01*
X45101Y284555D01*
X45548Y285634D01*
X45700Y286792D01*
X45548Y287950D01*
X45101Y289030D01*
X44390Y289957D01*
X43463Y290668D01*
X42384Y291115D01*
X41225Y291267D01*
X40179Y291130D01*
X39886Y291544D01*
X48477Y300135D01*
X49199Y299836D01*
X50100Y299717D01*
X51001Y299836D01*
X51841Y300184D01*
X52562Y300738D01*
X53116Y301459D01*
X53464Y302299D01*
X53583Y303200D01*
X53464Y304101D01*
X53116Y304941D01*
X52562Y305663D01*
X51841Y306216D01*
X51001Y306564D01*
X50100Y306683D01*
D02*
G37*
G36*
X20100D02*
X19199Y306564D01*
X18359Y306216D01*
X17638Y305663D01*
X17084Y304941D01*
X16736Y304101D01*
X16617Y303200D01*
X16736Y302299D01*
X17084Y301459D01*
X17638Y300738D01*
X18359Y300184D01*
X19199Y299836D01*
X20100Y299717D01*
X21001Y299836D01*
X21841Y300184D01*
X22562Y300738D01*
X23116Y301459D01*
X23464Y302299D01*
X23583Y303200D01*
X23464Y304101D01*
X23116Y304941D01*
X22562Y305663D01*
X21841Y306216D01*
X21001Y306564D01*
X20100Y306683D01*
D02*
G37*
G36*
X-2400Y306247D02*
X-3836Y306059D01*
X-5174Y305504D01*
X-6323Y304623D01*
X-7204Y303474D01*
X-7758Y302136D01*
X-7947Y300700D01*
X-7758Y299264D01*
X-7204Y297926D01*
X-6323Y296777D01*
X-5174Y295896D01*
X-3836Y295342D01*
X-2400Y295153D01*
X-964Y295342D01*
X374Y295896D01*
X1523Y296777D01*
X2404Y297926D01*
X2958Y299264D01*
X3148Y300700D01*
X2958Y302136D01*
X2404Y303474D01*
X1523Y304623D01*
X374Y305504D01*
X-964Y306059D01*
X-2400Y306247D01*
D02*
G37*
G36*
X60100Y306683D02*
X59199Y306564D01*
X58359Y306216D01*
X57638Y305663D01*
X57084Y304941D01*
X56736Y304101D01*
X56617Y303200D01*
X56736Y302299D01*
X57084Y301459D01*
X57638Y300738D01*
X58359Y300184D01*
X59080Y299885D01*
Y297289D01*
X6604Y244813D01*
X6383Y244482D01*
X6306Y244092D01*
Y225933D01*
X6113Y225804D01*
X5742Y225248D01*
X5611Y224592D01*
X5742Y223936D01*
X6113Y223380D01*
X6669Y223009D01*
X7325Y222878D01*
X7981Y223009D01*
X8537Y223380D01*
X8909Y223936D01*
X9039Y224592D01*
X8909Y225248D01*
X8537Y225804D01*
X8345Y225933D01*
Y243670D01*
X60821Y296146D01*
X61042Y296477D01*
X61120Y296867D01*
Y299885D01*
X61841Y300184D01*
X62563Y300738D01*
X63116Y301459D01*
X63464Y302299D01*
X63583Y303200D01*
X63464Y304101D01*
X63116Y304941D01*
X62563Y305663D01*
X61841Y306216D01*
X61001Y306564D01*
X60100Y306683D01*
D02*
G37*
G36*
X-2400Y221248D02*
X-3836Y221059D01*
X-5174Y220504D01*
X-6323Y219623D01*
X-7204Y218474D01*
X-7758Y217136D01*
X-7947Y215700D01*
X-7758Y214264D01*
X-7204Y212926D01*
X-6323Y211777D01*
X-5174Y210896D01*
X-3836Y210342D01*
X-2400Y210153D01*
X-964Y210342D01*
X374Y210896D01*
X1523Y211777D01*
X2404Y212926D01*
X2958Y214264D01*
X3148Y215700D01*
X2958Y217136D01*
X2404Y218474D01*
X1523Y219623D01*
X374Y220504D01*
X-964Y221059D01*
X-2400Y221248D01*
D02*
G37*
G36*
X13553Y216653D02*
X6647D01*
Y209747D01*
X13553D01*
Y216653D01*
D02*
G37*
G36*
X40100Y216683D02*
X39199Y216564D01*
X38359Y216216D01*
X37637Y215663D01*
X37084Y214941D01*
X36736Y214101D01*
X36617Y213200D01*
X36736Y212299D01*
X37084Y211459D01*
X37637Y210737D01*
X38359Y210184D01*
X39199Y209836D01*
X40100Y209717D01*
X41001Y209836D01*
X41841Y210184D01*
X42562Y210737D01*
X43116Y211459D01*
X43464Y212299D01*
X43583Y213200D01*
X43464Y214101D01*
X43116Y214941D01*
X42562Y215663D01*
X41841Y216216D01*
X41001Y216564D01*
X40100Y216683D01*
D02*
G37*
G36*
X30100D02*
X29199Y216564D01*
X28359Y216216D01*
X27637Y215663D01*
X27084Y214941D01*
X26736Y214101D01*
X26618Y213200D01*
X26736Y212299D01*
X27084Y211459D01*
X27637Y210737D01*
X28359Y210184D01*
X29199Y209836D01*
X30100Y209717D01*
X31001Y209836D01*
X31841Y210184D01*
X32563Y210737D01*
X33116Y211459D01*
X33464Y212299D01*
X33583Y213200D01*
X33464Y214101D01*
X33116Y214941D01*
X32563Y215663D01*
X31841Y216216D01*
X31001Y216564D01*
X30100Y216683D01*
D02*
G37*
G36*
X-265Y180501D02*
X-1424Y180349D01*
X-2503Y179902D01*
X-3430Y179191D01*
X-4141Y178264D01*
X-4588Y177184D01*
X-4741Y176026D01*
X-4588Y174868D01*
X-4141Y173788D01*
X-3430Y172862D01*
X-2503Y172150D01*
X-1424Y171703D01*
X-265Y171551D01*
X893Y171703D01*
X1972Y172150D01*
X2899Y172862D01*
X3610Y173788D01*
X4058Y174868D01*
X4210Y176026D01*
X4058Y177184D01*
X3610Y178264D01*
X2899Y179191D01*
X1972Y179902D01*
X893Y180349D01*
X-265Y180501D01*
D02*
G37*
G36*
X119625Y149406D02*
X118969Y149276D01*
X118413Y148904D01*
X118285Y148712D01*
X69866D01*
X69737Y148904D01*
X69181Y149276D01*
X68525Y149406D01*
X67869Y149276D01*
X67313Y148904D01*
X66942Y148348D01*
X66811Y147692D01*
X66942Y147036D01*
X67313Y146480D01*
X67869Y146109D01*
X68525Y145978D01*
X68752Y146023D01*
X80806Y133970D01*
Y72992D01*
X80883Y72602D01*
X81104Y72271D01*
X84006Y69370D01*
Y62233D01*
X83813Y62104D01*
X83442Y61548D01*
X83311Y60892D01*
X83442Y60236D01*
X83813Y59680D01*
X84369Y59309D01*
X85025Y59178D01*
X85681Y59309D01*
X86237Y59680D01*
X86609Y60236D01*
X86739Y60892D01*
X86609Y61548D01*
X86237Y62104D01*
X86045Y62233D01*
Y69792D01*
X85967Y70182D01*
X85746Y70513D01*
X84639Y71620D01*
X84922Y72044D01*
X85770Y71693D01*
X86825Y71554D01*
X87881Y71693D01*
X88864Y72101D01*
X89709Y72749D01*
X90357Y73593D01*
X90605Y74191D01*
X91105Y74092D01*
Y73750D01*
X91182Y73360D01*
X91187Y73354D01*
Y72796D01*
X88304Y69913D01*
X88083Y69582D01*
X88006Y69192D01*
Y52233D01*
X87813Y52104D01*
X87442Y51548D01*
X87311Y50892D01*
X87442Y50236D01*
X87813Y49680D01*
X88369Y49309D01*
X89025Y49178D01*
X89681Y49309D01*
X90237Y49680D01*
X90433Y49973D01*
X143451D01*
X143513Y49880D01*
X144069Y49509D01*
X144725Y49378D01*
X145381Y49509D01*
X145937Y49880D01*
X146309Y50436D01*
X146439Y51092D01*
X146309Y51748D01*
X145937Y52304D01*
X145381Y52676D01*
X144725Y52806D01*
X144069Y52676D01*
X143513Y52304D01*
X143318Y52012D01*
X90299D01*
X90237Y52104D01*
X90045Y52233D01*
Y68770D01*
X92927Y71652D01*
X93148Y71983D01*
X93226Y72373D01*
Y72698D01*
X93699Y72859D01*
X93784Y72749D01*
X94629Y72101D01*
X95612Y71693D01*
X96668Y71554D01*
X97723Y71693D01*
X98233Y71904D01*
X103927Y66211D01*
X104423Y65879D01*
X105008Y65763D01*
X147383D01*
X147968Y65879D01*
X148464Y66211D01*
X154158Y71904D01*
X154667Y71693D01*
X155723Y71554D01*
X156778Y71693D01*
X157762Y72101D01*
X158607Y72749D01*
X159255Y73593D01*
X159662Y74577D01*
X159801Y75632D01*
X159662Y76688D01*
X159255Y77671D01*
X158607Y78516D01*
X157762Y79164D01*
X156778Y79571D01*
X155723Y79711D01*
X154667Y79571D01*
X153684Y79164D01*
X152839Y78516D01*
X152191Y77671D01*
X151784Y76688D01*
X151645Y75632D01*
X151784Y74577D01*
X151995Y74067D01*
X146749Y68822D01*
X105641D01*
X100396Y74067D01*
X100607Y74577D01*
X100746Y75632D01*
X100607Y76688D01*
X100200Y77671D01*
X99551Y78516D01*
X98707Y79164D01*
X97723Y79571D01*
X96668Y79711D01*
X95612Y79571D01*
X94629Y79164D01*
X93784Y78516D01*
X93617Y78299D01*
X93144Y78460D01*
Y131269D01*
X94798Y132923D01*
X95025Y132878D01*
X95681Y133009D01*
X96237Y133380D01*
X96609Y133936D01*
X96739Y134592D01*
X96609Y135248D01*
X96237Y135804D01*
X95681Y136176D01*
X95025Y136306D01*
X94369Y136176D01*
X93813Y135804D01*
X93442Y135248D01*
X93311Y134592D01*
X93356Y134365D01*
X91404Y132412D01*
X91182Y132081D01*
X91105Y131691D01*
Y77173D01*
X90605Y77073D01*
X90357Y77671D01*
X89709Y78516D01*
X88864Y79164D01*
X87881Y79571D01*
X86825Y79711D01*
X85770Y79571D01*
X84786Y79164D01*
X83942Y78516D01*
X83345Y77738D01*
X83100Y77760D01*
X82845Y77876D01*
Y134392D01*
X82767Y134782D01*
X82546Y135113D01*
X71449Y146211D01*
X71640Y146672D01*
X118285D01*
X118413Y146480D01*
X118969Y146109D01*
X119625Y145978D01*
X120281Y146109D01*
X120837Y146480D01*
X121209Y147036D01*
X121339Y147692D01*
X121209Y148348D01*
X120837Y148904D01*
X120281Y149276D01*
X119625Y149406D01*
D02*
G37*
G36*
X131420Y109597D02*
X118609D01*
Y96786D01*
X131420D01*
Y109597D01*
D02*
G37*
G36*
X72365D02*
X59554D01*
Y96786D01*
X72365D01*
Y109597D01*
D02*
G37*
G36*
X14547D02*
X1736D01*
Y96786D01*
X14547D01*
Y109597D01*
D02*
G37*
G36*
X173152Y109597D02*
X160341D01*
Y96786D01*
X173152D01*
Y109597D01*
D02*
G37*
G36*
X114097D02*
X101286D01*
Y96786D01*
X114097D01*
Y109597D01*
D02*
G37*
G36*
X56279D02*
X43468D01*
Y96786D01*
X56279D01*
Y109597D01*
D02*
G37*
G36*
X145880Y79711D02*
X144825Y79571D01*
X143841Y79164D01*
X142997Y78516D01*
X142349Y77671D01*
X141941Y76688D01*
X141802Y75632D01*
X141941Y74577D01*
X142349Y73593D01*
X142997Y72749D01*
X143841Y72101D01*
X144825Y71693D01*
X145880Y71554D01*
X146936Y71693D01*
X147919Y72101D01*
X148764Y72749D01*
X149412Y73593D01*
X149820Y74577D01*
X149959Y75632D01*
X149820Y76688D01*
X149412Y77671D01*
X148764Y78516D01*
X147919Y79164D01*
X146936Y79571D01*
X145880Y79711D01*
D02*
G37*
G36*
X-8900Y73006D02*
X-9556Y72876D01*
X-10112Y72504D01*
X-10484Y71948D01*
X-10614Y71292D01*
X-10484Y70636D01*
X-10112Y70080D01*
X-9556Y69709D01*
X-9460Y69690D01*
X-1281Y61511D01*
X-785Y61179D01*
X-200Y61063D01*
X12188D01*
X12269Y61009D01*
X12925Y60878D01*
X13581Y61009D01*
X14137Y61380D01*
X14509Y61936D01*
X14639Y62592D01*
X14509Y63248D01*
X14137Y63804D01*
X13581Y64176D01*
X12925Y64306D01*
X12269Y64176D01*
X12188Y64122D01*
X434D01*
X-7297Y71852D01*
X-7316Y71948D01*
X-7688Y72504D01*
X-8244Y72876D01*
X-8900Y73006D01*
D02*
G37*
G36*
X131420Y30857D02*
X118609D01*
Y18046D01*
X131420D01*
Y30857D01*
D02*
G37*
G36*
X72365D02*
X59554D01*
Y18046D01*
X72365D01*
Y30857D01*
D02*
G37*
G36*
X13309D02*
X498D01*
Y18046D01*
X13309D01*
Y30857D01*
D02*
G37*
G36*
X173152Y30857D02*
X160341D01*
Y18046D01*
X173152D01*
Y30857D01*
D02*
G37*
G36*
X114097D02*
X101286D01*
Y18046D01*
X114097D01*
Y30857D01*
D02*
G37*
G36*
X55042D02*
X42231D01*
Y18046D01*
X55042D01*
Y30857D01*
D02*
G37*
G36*
X155723Y970D02*
X154667Y831D01*
X153684Y424D01*
X152839Y-224D01*
X152191Y-1069D01*
X151784Y-2052D01*
X151645Y-3108D01*
X151784Y-4163D01*
X152191Y-5147D01*
X152839Y-5992D01*
X153684Y-6640D01*
X154667Y-7047D01*
X155723Y-7186D01*
X156778Y-7047D01*
X157762Y-6640D01*
X158607Y-5992D01*
X159255Y-5147D01*
X159662Y-4163D01*
X159801Y-3108D01*
X159662Y-2052D01*
X159255Y-1069D01*
X158607Y-224D01*
X157762Y424D01*
X156778Y831D01*
X155723Y970D01*
D02*
G37*
G36*
X145880D02*
X144825Y831D01*
X143841Y424D01*
X142997Y-224D01*
X142349Y-1069D01*
X141941Y-2052D01*
X141802Y-3108D01*
X141941Y-4163D01*
X142349Y-5147D01*
X142997Y-5992D01*
X143841Y-6640D01*
X144825Y-7047D01*
X145880Y-7186D01*
X146936Y-7047D01*
X147919Y-6640D01*
X148764Y-5992D01*
X149412Y-5147D01*
X149820Y-4163D01*
X149959Y-3108D01*
X149820Y-2052D01*
X149412Y-1069D01*
X148764Y-224D01*
X147919Y424D01*
X146936Y831D01*
X145880Y970D01*
D02*
G37*
G36*
X96668D02*
X95612Y831D01*
X94629Y424D01*
X93784Y-224D01*
X93136Y-1069D01*
X92729Y-2052D01*
X92589Y-3108D01*
X92729Y-4163D01*
X93136Y-5147D01*
X93784Y-5992D01*
X94629Y-6640D01*
X95612Y-7047D01*
X96668Y-7186D01*
X97723Y-7047D01*
X98707Y-6640D01*
X99551Y-5992D01*
X100200Y-5147D01*
X100607Y-4163D01*
X100746Y-3108D01*
X100607Y-2052D01*
X100200Y-1069D01*
X99551Y-224D01*
X98707Y424D01*
X97723Y831D01*
X96668Y970D01*
D02*
G37*
G36*
X86825D02*
X85770Y831D01*
X84786Y424D01*
X83942Y-224D01*
X83293Y-1069D01*
X82886Y-2052D01*
X82747Y-3108D01*
X82886Y-4163D01*
X83293Y-5147D01*
X83942Y-5992D01*
X84786Y-6640D01*
X85770Y-7047D01*
X86825Y-7186D01*
X87881Y-7047D01*
X88864Y-6640D01*
X89709Y-5992D01*
X90357Y-5147D01*
X90764Y-4163D01*
X90903Y-3108D01*
X90764Y-2052D01*
X90357Y-1069D01*
X89709Y-224D01*
X88864Y424D01*
X87881Y831D01*
X86825Y970D01*
D02*
G37*
G36*
X37613D02*
X36557Y831D01*
X35574Y424D01*
X34729Y-224D01*
X34081Y-1069D01*
X33673Y-2052D01*
X33534Y-3108D01*
X33673Y-4163D01*
X34081Y-5147D01*
X34729Y-5992D01*
X35574Y-6640D01*
X36557Y-7047D01*
X37613Y-7186D01*
X38668Y-7047D01*
X39652Y-6640D01*
X40496Y-5992D01*
X41144Y-5147D01*
X41552Y-4163D01*
X41691Y-3108D01*
X41552Y-2052D01*
X41144Y-1069D01*
X40496Y-224D01*
X39652Y424D01*
X38668Y831D01*
X37613Y970D01*
D02*
G37*
G36*
X27770D02*
X26715Y831D01*
X25731Y424D01*
X24886Y-224D01*
X24238Y-1069D01*
X23831Y-2052D01*
X23692Y-3108D01*
X23831Y-4163D01*
X24238Y-5147D01*
X24886Y-5992D01*
X25731Y-6640D01*
X26715Y-7047D01*
X27770Y-7186D01*
X28826Y-7047D01*
X29809Y-6640D01*
X30654Y-5992D01*
X31302Y-5147D01*
X31709Y-4163D01*
X31848Y-3108D01*
X31709Y-2052D01*
X31302Y-1069D01*
X30654Y-224D01*
X29809Y424D01*
X28826Y831D01*
X27770Y970D01*
D02*
G37*
%LPD*%
G36*
X87084Y301459D02*
X87638Y300738D01*
X88359Y300184D01*
X89080Y299885D01*
Y286017D01*
X89158Y285627D01*
X89379Y285296D01*
X93628Y281048D01*
Y215013D01*
X93128Y214913D01*
X93116Y214941D01*
X92563Y215663D01*
X91841Y216216D01*
X91001Y216564D01*
X90100Y216683D01*
X89199Y216564D01*
X88359Y216216D01*
X87667Y215685D01*
X87472Y215719D01*
X87167Y215822D01*
Y231692D01*
X89998Y234523D01*
X90225Y234478D01*
X90881Y234609D01*
X91437Y234980D01*
X91809Y235536D01*
X91939Y236192D01*
X91809Y236848D01*
X91437Y237404D01*
X90881Y237776D01*
X90225Y237906D01*
X89569Y237776D01*
X89013Y237404D01*
X88642Y236848D01*
X88511Y236192D01*
X88556Y235965D01*
X85426Y232835D01*
X85242Y232817D01*
X82094Y235965D01*
X82139Y236192D01*
X82009Y236848D01*
X81637Y237404D01*
X81081Y237776D01*
X80425Y237906D01*
X79769Y237776D01*
X79213Y237404D01*
X78842Y236848D01*
X78711Y236192D01*
X78842Y235536D01*
X79213Y234980D01*
X79769Y234609D01*
X80425Y234478D01*
X80652Y234523D01*
X83628Y231548D01*
Y215013D01*
X83128Y214913D01*
X83116Y214941D01*
X82563Y215663D01*
X81841Y216216D01*
X81001Y216564D01*
X80100Y216683D01*
X79199Y216564D01*
X78359Y216216D01*
X77637Y215663D01*
X77084Y214941D01*
X76736Y214101D01*
X76617Y213200D01*
X76736Y212299D01*
X77084Y211459D01*
X77637Y210737D01*
X78359Y210184D01*
X79199Y209836D01*
X80100Y209717D01*
X81001Y209836D01*
X81841Y210184D01*
X82563Y210737D01*
X83116Y211459D01*
X83128Y211487D01*
X83628Y211387D01*
Y208736D01*
X69203Y194312D01*
X54799D01*
X54537Y194704D01*
X53981Y195076D01*
X53325Y195206D01*
X52669Y195076D01*
X52113Y194704D01*
X51945Y194452D01*
X51445Y194604D01*
Y198582D01*
X56524Y203661D01*
X56745Y203992D01*
X56822Y204382D01*
Y210978D01*
X57322Y211148D01*
X57638Y210737D01*
X58359Y210184D01*
X59199Y209836D01*
X60100Y209717D01*
X61001Y209836D01*
X61841Y210184D01*
X62563Y210737D01*
X63116Y211459D01*
X63464Y212299D01*
X63583Y213200D01*
X63464Y214101D01*
X63116Y214941D01*
X62563Y215663D01*
X61841Y216216D01*
X61001Y216564D01*
X60100Y216683D01*
X59199Y216564D01*
X58359Y216216D01*
X57638Y215663D01*
X57322Y215252D01*
X56822Y215422D01*
Y280326D01*
X71969Y295473D01*
X73392D01*
X73782Y295550D01*
X74113Y295771D01*
X78477Y300135D01*
X79199Y299836D01*
X80100Y299717D01*
X81001Y299836D01*
X81841Y300184D01*
X82563Y300738D01*
X82996Y301302D01*
X83496Y301132D01*
Y291226D01*
X83092Y290822D01*
X82384Y291115D01*
X81225Y291267D01*
X80067Y291115D01*
X78988Y290668D01*
X78061Y289957D01*
X77350Y289030D01*
X76902Y287950D01*
X76750Y286792D01*
X76902Y285634D01*
X77350Y284555D01*
X78061Y283628D01*
X78988Y282916D01*
X80067Y282469D01*
X81225Y282317D01*
X82384Y282469D01*
X83463Y282916D01*
X84390Y283628D01*
X85101Y284555D01*
X85548Y285634D01*
X85701Y286792D01*
X85548Y287950D01*
X85255Y288659D01*
X86107Y289511D01*
X86438Y290007D01*
X86555Y290592D01*
Y301430D01*
X87055Y301530D01*
X87084Y301459D01*
D02*
G37*
G36*
X93628Y211387D02*
Y200939D01*
X93140Y200719D01*
X87167Y206692D01*
Y210578D01*
X87472Y210681D01*
X87667Y210715D01*
X88359Y210184D01*
X89199Y209836D01*
X90100Y209717D01*
X91001Y209836D01*
X91841Y210184D01*
X92563Y210737D01*
X93116Y211459D01*
X93128Y211487D01*
X93628Y211387D01*
D02*
G37*
G36*
X44997Y187940D02*
X45016Y187844D01*
X45388Y187288D01*
X45944Y186916D01*
X46600Y186786D01*
X47256Y186916D01*
X47406Y187016D01*
X47906Y186749D01*
Y184436D01*
X40516Y177046D01*
X29666D01*
X29648Y177184D01*
X29201Y178264D01*
X28490Y179191D01*
X27563Y179902D01*
X26484Y180349D01*
X25325Y180501D01*
X24167Y180349D01*
X23088Y179902D01*
X22161Y179191D01*
X21450Y178264D01*
X21002Y177184D01*
X20850Y176026D01*
X21002Y174868D01*
X21450Y173788D01*
X22161Y172862D01*
X23088Y172150D01*
X24167Y171703D01*
X25325Y171551D01*
X26484Y171703D01*
X27563Y172150D01*
X28490Y172862D01*
X29201Y173788D01*
X29648Y174868D01*
X29666Y175006D01*
X40938D01*
X41328Y175084D01*
X41659Y175305D01*
X44886Y178532D01*
X45292Y178264D01*
X44845Y177184D01*
X44693Y176026D01*
X44845Y174868D01*
X45292Y173788D01*
X46003Y172862D01*
X46930Y172150D01*
X48010Y171703D01*
X49168Y171551D01*
X50326Y171703D01*
X51406Y172150D01*
X52333Y172862D01*
X53044Y173788D01*
X53491Y174868D01*
X53509Y175006D01*
X70417D01*
X70436Y174868D01*
X70883Y173788D01*
X71594Y172862D01*
X72521Y172150D01*
X73600Y171703D01*
X74759Y171551D01*
X75520Y171651D01*
X75753Y171177D01*
X52502Y147927D01*
X52024Y148072D01*
X52009Y148148D01*
X51637Y148704D01*
X51081Y149076D01*
X50425Y149206D01*
X49769Y149076D01*
X49213Y148704D01*
X48842Y148148D01*
X48711Y147492D01*
X48842Y146836D01*
X48956Y146665D01*
X43203Y140912D01*
X26566D01*
X26437Y141104D01*
X25881Y141476D01*
X25225Y141606D01*
X24998Y141561D01*
X18245Y148314D01*
Y185470D01*
X21098Y188323D01*
X21325Y188278D01*
X21981Y188409D01*
X22537Y188780D01*
X22909Y189336D01*
X23039Y189992D01*
X22909Y190648D01*
X22537Y191204D01*
X22150Y191463D01*
X22302Y191963D01*
X40974D01*
X44997Y187940D01*
D02*
G37*
G36*
X85128Y206699D02*
Y206270D01*
X85205Y205880D01*
X85426Y205549D01*
X98802Y192174D01*
X98610Y191712D01*
X90192D01*
X89802Y191634D01*
X89471Y191413D01*
X81163Y183105D01*
X80691Y183341D01*
X80638Y183612D01*
X80417Y183943D01*
X71067Y193292D01*
X84666Y206891D01*
X85128Y206699D01*
D02*
G37*
G36*
X52113Y192280D02*
X52669Y191909D01*
X53325Y191778D01*
X53981Y191909D01*
X54526Y192272D01*
X69203D01*
X78676Y182799D01*
Y179031D01*
X78176Y178861D01*
X77923Y179191D01*
X76996Y179902D01*
X75917Y180349D01*
X74759Y180501D01*
X73600Y180349D01*
X72521Y179902D01*
X71594Y179191D01*
X70883Y178264D01*
X70436Y177184D01*
X70417Y177046D01*
X53509D01*
X53491Y177184D01*
X53044Y178264D01*
X52333Y179191D01*
X51445Y179872D01*
Y192380D01*
X51945Y192532D01*
X52113Y192280D01*
D02*
G37*
G36*
X33287Y86158D02*
Y77173D01*
X32787Y77073D01*
X32539Y77671D01*
X31891Y78516D01*
X31046Y79164D01*
X30063Y79571D01*
X29007Y79711D01*
X27952Y79571D01*
X26968Y79164D01*
X26123Y78516D01*
X25845Y78153D01*
X25345Y78323D01*
Y78870D01*
X32825Y86350D01*
X33287Y86158D01*
D02*
G37*
%LPC*%
G36*
X70100Y216683D02*
X69199Y216564D01*
X68359Y216216D01*
X67637Y215663D01*
X67084Y214941D01*
X66736Y214101D01*
X66618Y213200D01*
X66736Y212299D01*
X67084Y211459D01*
X67637Y210737D01*
X68359Y210184D01*
X69199Y209836D01*
X70100Y209717D01*
X71001Y209836D01*
X71841Y210184D01*
X72562Y210737D01*
X73116Y211459D01*
X73464Y212299D01*
X73583Y213200D01*
X73464Y214101D01*
X73116Y214941D01*
X72562Y215663D01*
X71841Y216216D01*
X71001Y216564D01*
X70100Y216683D01*
D02*
G37*
%LPD*%
D46*
X126400Y187400D02*
X134600Y195600D01*
X143100D01*
X152400Y186300D02*
X152700D01*
X143100Y195600D02*
X152400Y186300D01*
X35600Y242100D02*
X51300Y257800D01*
X31100Y242100D02*
X35600D01*
X17225Y193492D02*
X41608D01*
X46600Y188500D01*
X10525Y186792D02*
X17225Y193492D01*
X-157Y186792D02*
X10525D01*
X-200Y62592D02*
X12925D01*
X-8900Y71292D02*
X-200Y62592D01*
X147383Y67292D02*
X155723Y75632D01*
X105008Y67292D02*
X147383D01*
X96668Y75632D02*
X105008Y67292D01*
X79447Y342892D02*
X85025Y337313D01*
Y290592D02*
Y337313D01*
X81225Y286792D02*
X85025Y290592D01*
X74525Y342892D02*
X79447D01*
D47*
X44410Y138392D02*
X79696Y173678D01*
X43725Y138392D02*
X44410D01*
X32725Y127392D02*
X43725Y138392D01*
X90192Y190692D02*
X101725D01*
X81196Y181696D02*
X90192Y190692D01*
X81196Y173057D02*
Y181696D01*
X53925Y145786D02*
X81196Y173057D01*
X53925Y138592D02*
Y145786D01*
X144425Y50992D02*
X144525Y50892D01*
X79696Y173678D02*
Y183222D01*
X48925Y199626D02*
X54303Y205003D01*
X48925Y184013D02*
Y199626D01*
X50425Y199005D02*
X55803Y204382D01*
X50425Y177283D02*
Y199005D01*
X55803Y204382D02*
Y280748D01*
X54303Y205003D02*
Y281370D01*
X40938Y176026D02*
X48925Y184013D01*
X25325Y176026D02*
X40938D01*
X49168D02*
X50425Y177283D01*
Y146692D02*
Y147492D01*
X43625Y139892D02*
X50425Y146692D01*
X25225Y139892D02*
X43625D01*
X47125Y138592D02*
X53925D01*
X34306Y125773D02*
X47125Y138592D01*
X34306Y63873D02*
Y125773D01*
X32725Y87692D02*
Y127392D01*
X24325Y79292D02*
X32725Y87692D01*
X86147Y206270D02*
X101725Y190692D01*
X86147Y206270D02*
Y232114D01*
X69625Y193292D02*
X79696Y183222D01*
X24325Y61892D02*
X24725Y61492D01*
X24325Y61892D02*
Y79292D01*
X31225Y60792D02*
X34306Y63873D01*
X84647Y208314D02*
Y231970D01*
X80425Y236192D02*
X84647Y231970D01*
X69625Y193292D02*
X84647Y208314D01*
X53325Y193492D02*
X53525Y193292D01*
X69625D01*
X89125Y50992D02*
X144425D01*
X89025Y50892D02*
X89125Y50992D01*
X85025Y60892D02*
Y69792D01*
X81825Y72992D02*
X85025Y69792D01*
X81825Y72992D02*
Y134392D01*
X92206Y72373D02*
Y73668D01*
X89025Y69192D02*
X92206Y72373D01*
X89025Y50892D02*
Y69192D01*
X92124Y131691D02*
X95025Y134592D01*
X92124Y73750D02*
Y131691D01*
Y73750D02*
X92206Y73668D01*
X68525Y147692D02*
X81825Y134392D01*
X68525Y147692D02*
X119625D01*
X86147Y232114D02*
X90225Y236192D01*
X119725Y198492D02*
X119875Y198342D01*
X159175D01*
X159325Y198192D01*
X44425Y198992D02*
X48725Y203292D01*
X9425Y198992D02*
X44425D01*
X17225Y147892D02*
X25225Y139892D01*
X17225Y147892D02*
Y185892D01*
X21325Y189992D01*
X73392Y296492D02*
X80100Y303200D01*
X71547Y296492D02*
X73392D01*
X94647Y200749D02*
Y281470D01*
X90100Y286017D02*
X94647Y281470D01*
X90100Y286017D02*
Y303200D01*
X94647Y200749D02*
X101404Y193992D01*
X113813D01*
X124192Y183613D01*
Y176026D02*
Y183613D01*
X98601Y176026D02*
X124192D01*
X96147Y281514D02*
X100100Y285467D01*
X96147Y201370D02*
Y281514D01*
Y201370D02*
X102025Y195492D01*
X114435D01*
X100100Y285467D02*
Y303200D01*
X114435Y195492D02*
X133901Y176026D01*
X148035D01*
X173625D01*
X55803Y280748D02*
X71547Y296492D01*
X54303Y281370D02*
X70100Y297167D01*
Y303200D01*
X49168Y176026D02*
X74759D01*
X104053Y283692D02*
Y319365D01*
X105625Y254092D02*
Y326392D01*
X114647Y283414D02*
Y325414D01*
X116147Y283570D02*
Y318714D01*
X105625Y254092D02*
X110725Y248992D01*
X116147Y318714D02*
X120168Y322735D01*
X114647Y325414D02*
X115625Y326392D01*
X116147Y283570D02*
X120100Y279617D01*
X101525Y281165D02*
X104053Y283692D01*
X100925Y322492D02*
X104053Y319365D01*
X120100Y213200D02*
Y279617D01*
X7325Y224592D02*
Y244092D01*
X60100Y296867D01*
Y303200D01*
X12225Y261092D02*
X12425Y260892D01*
X12225Y261092D02*
Y265325D01*
X50100Y303200D01*
X9925Y262492D02*
Y273025D01*
X40100Y303200D01*
X7325Y260792D02*
Y280425D01*
X30100Y303200D01*
X120168Y322735D02*
Y329530D01*
X100925Y322492D02*
Y351692D01*
X115625Y334073D02*
X120168Y329530D01*
X115625Y334073D02*
Y356392D01*
X110825Y279592D02*
X114647Y283414D01*
X100925Y351692D02*
X105625Y356392D01*
X101525Y251492D02*
Y281165D01*
Y251492D02*
X110100Y242917D01*
Y213200D02*
Y242917D01*
X110825Y279292D02*
Y279592D01*
D48*
X-265Y158309D02*
D03*
Y176026D02*
D03*
X25325D02*
D03*
Y158309D02*
D03*
X74759D02*
D03*
Y176026D02*
D03*
X49168D02*
D03*
Y158309D02*
D03*
X148035D02*
D03*
Y176026D02*
D03*
X173625D02*
D03*
Y158309D02*
D03*
X124192D02*
D03*
Y176026D02*
D03*
X98601D02*
D03*
Y158309D02*
D03*
X41225Y286792D02*
D03*
X81225D02*
D03*
D49*
X173300Y-8400D02*
D03*
D50*
X74525Y319270D02*
D03*
Y342892D02*
D03*
D51*
X55628Y329113D02*
D03*
D52*
X-2400Y300700D02*
D03*
Y215700D02*
D03*
D53*
X120100Y213200D02*
D03*
X110100D02*
D03*
X100100D02*
D03*
X90100D02*
D03*
X80100D02*
D03*
X70100D02*
D03*
X60100D02*
D03*
X50100D02*
D03*
X40100D02*
D03*
X30100D02*
D03*
X20100D02*
D03*
X120100Y303200D02*
D03*
X110100D02*
D03*
X100100D02*
D03*
X90100D02*
D03*
X80100D02*
D03*
X70100D02*
D03*
X60100D02*
D03*
X50100D02*
D03*
X40100D02*
D03*
X30100D02*
D03*
X20100D02*
D03*
D54*
X10100Y213200D02*
D03*
Y303200D02*
D03*
D55*
X107691Y103191D02*
D03*
X65959Y103191D02*
D03*
X166746Y103191D02*
D03*
X125014Y103191D02*
D03*
X49873Y103191D02*
D03*
X8141Y103191D02*
D03*
X166746Y24451D02*
D03*
X125014Y24451D02*
D03*
X48636Y24451D02*
D03*
X6904Y24451D02*
D03*
X65959D02*
D03*
X107691Y24451D02*
D03*
D56*
X76983Y75632D02*
D03*
X86825D02*
D03*
X96668D02*
D03*
X136038D02*
D03*
X145880D02*
D03*
X155723D02*
D03*
X19165D02*
D03*
X29007D02*
D03*
X38850D02*
D03*
X136038Y-3108D02*
D03*
X145880D02*
D03*
X155723D02*
D03*
X17928D02*
D03*
X27770D02*
D03*
X37613D02*
D03*
X96668D02*
D03*
X86825D02*
D03*
X76983D02*
D03*
D57*
X115625Y356392D02*
D03*
X105625D02*
D03*
X115625Y326392D02*
D03*
X105625D02*
D03*
D58*
X29100Y225934D02*
D03*
X126400Y187400D02*
D03*
X152700Y186300D02*
D03*
X143100Y195600D02*
D03*
X51300Y257800D02*
D03*
X31100Y242100D02*
D03*
X46600Y188500D02*
D03*
X-157Y186792D02*
D03*
X12925Y62592D02*
D03*
X-8900Y71292D02*
D03*
X32725Y127392D02*
D03*
X101725Y190692D02*
D03*
X53925Y138592D02*
D03*
X24725Y61492D02*
D03*
X80425Y236192D02*
D03*
X53325Y193492D02*
D03*
X95025Y134592D02*
D03*
X85025Y60892D02*
D03*
X89025Y50892D02*
D03*
X144725Y51092D02*
D03*
X50425Y147492D02*
D03*
X68525Y147692D02*
D03*
X90225Y236192D02*
D03*
X31225Y60792D02*
D03*
X119725Y198492D02*
D03*
X159325Y198192D02*
D03*
X48725Y203292D02*
D03*
X9425Y198992D02*
D03*
X119625Y147692D02*
D03*
X25225Y139892D02*
D03*
X21325Y189992D02*
D03*
X7325Y224592D02*
D03*
X12425Y260892D02*
D03*
X9925Y262492D02*
D03*
X7325Y260792D02*
D03*
X110725Y248992D02*
D03*
X110825Y279292D02*
D03*
M02*
