M48
;Layer_Color=9474304
;FILE_FORMAT=2:5
INCH,LZ
;TYPE=PLATED
T4F00S00C0.03937
T6F00S00C0.07087
%
G90
G05
T04
G00X0055628Y0325176
M15
G01Y033305
M16
G00X0069604Y031927
M15
G01X0079447
M16
G00X0069604Y0342892
M15
G01X0079447
M16
T06
G00X0048636Y0023861
M15
G01Y0025042
M16
G00X0065959Y0023861
M15
G01Y0025042
M16
G00X0107691Y0023861
M15
G01Y0025042
M16
G00X0125014Y0023861
M15
G01Y0025042
M16
G00X0166746Y0023861
M15
G01Y0025042
M16
G00X0006904Y0023861
M15
G01Y0025042
M16
G00X0008141Y0102601
M15
G01Y0103782
M16
G00X0049873Y0102601
M15
G01Y0103782
M16
G00X0065959Y0102601
M15
G01Y0103782
M16
G00X0107691Y0102601
M15
G01Y0103782
M16
G00X0125014Y0102601
M15
G01Y0103782
M16
G00X0166746Y0102601
M15
G01Y0103782
M16
M30
