G04*
G04 #@! TF.GenerationSoftware,Altium Limited,Altium Designer,19.0.10 (269)*
G04*
G04 Layer_Color=16711935*
%FSLAX25Y25*%
%MOIN*%
G70*
G01*
G75*
%ADD35C,0.08674*%
%ADD36C,0.20485*%
%ADD37R,0.18517X0.08674*%
%ADD38R,0.08674X0.16548*%
%ADD39C,0.10800*%
%ADD40C,0.06706*%
%ADD41R,0.06706X0.06706*%
%ADD42R,0.12611X0.12611*%
%ADD43C,0.07887*%
%ADD44C,0.07887*%
D35*
X-265Y158309D02*
D03*
Y176026D02*
D03*
X25325D02*
D03*
Y158309D02*
D03*
X74759D02*
D03*
Y176026D02*
D03*
X49168D02*
D03*
Y158309D02*
D03*
X148035D02*
D03*
Y176026D02*
D03*
X173625D02*
D03*
Y158309D02*
D03*
X124192D02*
D03*
Y176026D02*
D03*
X98601D02*
D03*
Y158309D02*
D03*
X41225Y286792D02*
D03*
X81225D02*
D03*
D36*
X173300Y-8400D02*
D03*
D37*
X74525Y319270D02*
D03*
Y342892D02*
D03*
D38*
X55628Y329113D02*
D03*
D39*
X-2400Y300700D02*
D03*
Y215700D02*
D03*
D40*
X120100Y213200D02*
D03*
X110100D02*
D03*
X100100D02*
D03*
X90100D02*
D03*
X80100D02*
D03*
X70100D02*
D03*
X60100D02*
D03*
X50100D02*
D03*
X40100D02*
D03*
X30100D02*
D03*
X20100D02*
D03*
X120100Y303200D02*
D03*
X110100D02*
D03*
X100100D02*
D03*
X90100D02*
D03*
X80100D02*
D03*
X70100D02*
D03*
X60100D02*
D03*
X50100D02*
D03*
X40100D02*
D03*
X30100D02*
D03*
X20100D02*
D03*
D41*
X10100Y213200D02*
D03*
Y303200D02*
D03*
D42*
X107691Y103191D02*
D03*
X65959Y103191D02*
D03*
X166746Y103191D02*
D03*
X125014Y103191D02*
D03*
X49873Y103191D02*
D03*
X8141Y103191D02*
D03*
X166746Y24451D02*
D03*
X125014Y24451D02*
D03*
X48636Y24451D02*
D03*
X6904Y24451D02*
D03*
X65959D02*
D03*
X107691Y24451D02*
D03*
D43*
X76983Y75632D02*
D03*
X86825D02*
D03*
X96668D02*
D03*
X136038D02*
D03*
X145880D02*
D03*
X155723D02*
D03*
X19165D02*
D03*
X29007D02*
D03*
X38850D02*
D03*
X136038Y-3108D02*
D03*
X145880D02*
D03*
X155723D02*
D03*
X17928D02*
D03*
X27770D02*
D03*
X37613D02*
D03*
X96668D02*
D03*
X86825D02*
D03*
X76983D02*
D03*
D44*
X115625Y356392D02*
D03*
X105625D02*
D03*
X115625Y326392D02*
D03*
X105625D02*
D03*
M02*
