G04*
G04 #@! TF.GenerationSoftware,Altium Limited,Altium Designer,19.0.10 (269)*
G04*
G04 Layer_Color=8388736*
%FSLAX25Y25*%
%MOIN*%
G70*
G01*
G75*
%ADD23R,0.05800X0.05800*%
%ADD24R,0.04343X0.03950*%
%ADD25R,0.05800X0.05800*%
%ADD26R,0.01981X0.02769*%
%ADD27O,0.01981X0.02769*%
%ADD28O,0.14580X0.08674*%
%ADD29O,0.09068X0.03556*%
%ADD30O,0.08280X0.03556*%
%ADD31R,0.03950X0.04343*%
%ADD32R,0.09855X0.09855*%
%ADD33O,0.02690X0.03950*%
%ADD34R,0.02690X0.03950*%
%ADD35C,0.08674*%
%ADD36C,0.20485*%
%ADD37R,0.18517X0.08674*%
%ADD38R,0.08674X0.16548*%
%ADD39C,0.10800*%
%ADD40C,0.06706*%
%ADD41R,0.06706X0.06706*%
%ADD42R,0.12611X0.12611*%
%ADD43C,0.07887*%
%ADD44C,0.07887*%
D23*
X112100Y288900D02*
D03*
X118700D02*
D03*
X96500D02*
D03*
X103100D02*
D03*
X15830Y186792D02*
D03*
X9230D02*
D03*
X65263D02*
D03*
X58663D02*
D03*
X114697D02*
D03*
X108097D02*
D03*
X164130D02*
D03*
X157530D02*
D03*
Y193743D02*
D03*
X164130D02*
D03*
X108097D02*
D03*
X114697D02*
D03*
X58663D02*
D03*
X65263D02*
D03*
X9230D02*
D03*
X15830D02*
D03*
X142980Y134687D02*
D03*
X149580D02*
D03*
X83925D02*
D03*
X90525D02*
D03*
X24870D02*
D03*
X31470D02*
D03*
X142980Y55947D02*
D03*
X149580D02*
D03*
X83925D02*
D03*
X90525D02*
D03*
X24870D02*
D03*
X31470D02*
D03*
X120053Y142561D02*
D03*
X113453D02*
D03*
X54398D02*
D03*
X60998D02*
D03*
D24*
X6325Y62536D02*
D03*
Y68048D02*
D03*
X525Y62536D02*
D03*
Y68048D02*
D03*
X6325Y-10464D02*
D03*
Y-4952D02*
D03*
X525Y-10464D02*
D03*
Y-4952D02*
D03*
X3425Y286448D02*
D03*
Y280936D02*
D03*
X40925Y275904D02*
D03*
Y270392D02*
D03*
X125014Y253748D02*
D03*
Y248236D02*
D03*
D25*
X70325Y230892D02*
D03*
Y224292D02*
D03*
X80225Y230892D02*
D03*
Y224292D02*
D03*
X90125Y230892D02*
D03*
Y224292D02*
D03*
X100025Y230892D02*
D03*
Y224292D02*
D03*
D26*
X7330Y229792D02*
D03*
D27*
X9889D02*
D03*
X12448D02*
D03*
X15007D02*
D03*
X17566D02*
D03*
X20125D02*
D03*
X22684D02*
D03*
X25243D02*
D03*
X7330Y255776D02*
D03*
X9889D02*
D03*
X12448D02*
D03*
X15007D02*
D03*
X17566D02*
D03*
X20125D02*
D03*
X22684D02*
D03*
X25243D02*
D03*
D28*
X22925Y280692D02*
D03*
D29*
X13475Y280692D02*
D03*
D30*
X13085Y274782D02*
D03*
Y286602D02*
D03*
D31*
X26037Y219492D02*
D03*
X20525D02*
D03*
X34469Y255792D02*
D03*
X39981D02*
D03*
X34569Y219492D02*
D03*
X40081D02*
D03*
X23325Y205392D02*
D03*
X28837D02*
D03*
X40081Y224492D02*
D03*
X34569D02*
D03*
X18081Y205392D02*
D03*
X12569D02*
D03*
X93681Y245492D02*
D03*
X88169D02*
D03*
D32*
X-1275Y323643D02*
D03*
X42032D02*
D03*
Y357895D02*
D03*
X-1275D02*
D03*
X134218Y323643D02*
D03*
X177525D02*
D03*
Y357895D02*
D03*
X134218D02*
D03*
D33*
X116025Y273677D02*
D03*
X111025D02*
D03*
X106025D02*
D03*
X101025D02*
D03*
X96025D02*
D03*
X91025D02*
D03*
X86025D02*
D03*
X81025D02*
D03*
X116025Y253992D02*
D03*
X111025D02*
D03*
X106025D02*
D03*
X101025D02*
D03*
X96025D02*
D03*
X91025D02*
D03*
X86025D02*
D03*
D34*
X81025D02*
D03*
D35*
X-265Y158309D02*
D03*
Y176026D02*
D03*
X25325D02*
D03*
Y158309D02*
D03*
X74759D02*
D03*
Y176026D02*
D03*
X49168D02*
D03*
Y158309D02*
D03*
X148035D02*
D03*
Y176026D02*
D03*
X173625D02*
D03*
Y158309D02*
D03*
X124192D02*
D03*
Y176026D02*
D03*
X98601D02*
D03*
Y158309D02*
D03*
X41225Y286792D02*
D03*
X81225D02*
D03*
D36*
X173300Y-8400D02*
D03*
D37*
X74525Y319270D02*
D03*
Y342892D02*
D03*
D38*
X55628Y329113D02*
D03*
D39*
X-2400Y300700D02*
D03*
Y215700D02*
D03*
D40*
X120100Y213200D02*
D03*
X110100D02*
D03*
X100100D02*
D03*
X90100D02*
D03*
X80100D02*
D03*
X70100D02*
D03*
X60100D02*
D03*
X50100D02*
D03*
X40100D02*
D03*
X30100D02*
D03*
X20100D02*
D03*
X120100Y303200D02*
D03*
X110100D02*
D03*
X100100D02*
D03*
X90100D02*
D03*
X80100D02*
D03*
X70100D02*
D03*
X60100D02*
D03*
X50100D02*
D03*
X40100D02*
D03*
X30100D02*
D03*
X20100D02*
D03*
D41*
X10100Y213200D02*
D03*
Y303200D02*
D03*
D42*
X107691Y103191D02*
D03*
X65959Y103191D02*
D03*
X166746Y103191D02*
D03*
X125014Y103191D02*
D03*
X49873Y103191D02*
D03*
X8141Y103191D02*
D03*
X166746Y24451D02*
D03*
X125014Y24451D02*
D03*
X48636Y24451D02*
D03*
X6904Y24451D02*
D03*
X65959D02*
D03*
X107691Y24451D02*
D03*
D43*
X76983Y75632D02*
D03*
X86825D02*
D03*
X96668D02*
D03*
X136038D02*
D03*
X145880D02*
D03*
X155723D02*
D03*
X19165D02*
D03*
X29007D02*
D03*
X38850D02*
D03*
X136038Y-3108D02*
D03*
X145880D02*
D03*
X155723D02*
D03*
X17928D02*
D03*
X27770D02*
D03*
X37613D02*
D03*
X96668D02*
D03*
X86825D02*
D03*
X76983D02*
D03*
D44*
X115625Y356392D02*
D03*
X105625D02*
D03*
X115625Y326392D02*
D03*
X105625D02*
D03*
M02*
