M48
;Layer_Color=9474304
;FILE_FORMAT=2:5
INCH,LZ
;TYPE=PLATED
T1F00S00C0.01181
T2F00S00C0.03543
T3F00S00C0.03937
T5F00S00C0.04724
T7F00S00C0.10000
T8F00S00C0.12598
%
T01
X0089025Y0050892
X0085025Y0060892
X0144725Y0051092
X0031225Y0060792
X0024725Y0061492
X0012925Y0062592
X-00089Y0071292
X0032725Y0127392
X0025225Y0139892
X0021325Y0189992
X0009425Y0198992
X-0000157Y0186792
X0007325Y0224592
X00291Y0225934
X0048725Y0203292
X0053325Y0193492
X00466Y01885
X0050425Y0147492
X0053925Y0138592
X0068525Y0147692
X0095025Y0134592
X0119625Y0147692
X01264Y01874
X0119725Y0198492
X0101725Y0190692
X01431Y01956
X0159325Y0198192
X01527Y01863
X0110725Y0248992
X0110825Y0279292
X0090225Y0236192
X0080425
X00513Y02578
X00311Y02421
X0012425Y0260892
X0009925Y0262492
X0007325Y0260792
T02
X00101Y02132
X00201
X00301
X00401
X00501
X00601
X00701
X00801
X00901
X01001
X01101
X01201
Y03032
X01101
X01001
X00901
X00801
X00701
X00601
X00501
X00401
X00301
X00201
X00101
T03
X0037613Y-0003108
X0076983
X0086825
X0096668
X0136038
X014588
X0155723
X002777
X0017928
X0019165Y0075632
X0029007
X0025325Y0158309
Y0176026
X-0000265
Y0158309
X0049168
Y0176026
X0074759
Y0158309
X0098601
Y0176026
X0124192
Y0158309
X0148035
Y0176026
X0173625
Y0158309
X0155723Y0075632
X014588
X0136038
X0096668
X0086825
X0076983
X003885
X0041225Y0286792
X0081225
T05
X0105625Y0326392
X0115625
Y0356392
X0105625
T07
X-00024Y02157
Y03007
T08
X01733Y-00084
M30
