G04*
G04 #@! TF.GenerationSoftware,Altium Limited,Altium Designer,19.0.10 (269)*
G04*
G04 Layer_Color=8421504*
%FSLAX25Y25*%
%MOIN*%
G70*
G01*
G75*
%ADD11R,0.05000X0.05000*%
%ADD12R,0.03543X0.03150*%
%ADD13R,0.05000X0.05000*%
%ADD14R,0.01181X0.01968*%
%ADD15O,0.01181X0.01968*%
%ADD16O,0.13780X0.07874*%
%ADD17O,0.08268X0.02756*%
%ADD18O,0.07480X0.02756*%
%ADD19R,0.03150X0.03543*%
%ADD20R,0.09055X0.09055*%
%ADD21O,0.01890X0.03150*%
%ADD22R,0.01890X0.03150*%
D11*
X112100Y288900D02*
D03*
X118700D02*
D03*
X96500D02*
D03*
X103100D02*
D03*
X15830Y186792D02*
D03*
X9230D02*
D03*
X65263D02*
D03*
X58663D02*
D03*
X114697D02*
D03*
X108097D02*
D03*
X164130D02*
D03*
X157530D02*
D03*
Y193743D02*
D03*
X164130D02*
D03*
X108097D02*
D03*
X114697D02*
D03*
X58663D02*
D03*
X65263D02*
D03*
X9230D02*
D03*
X15830D02*
D03*
X142980Y134687D02*
D03*
X149580D02*
D03*
X83925D02*
D03*
X90525D02*
D03*
X24870D02*
D03*
X31470D02*
D03*
X142980Y55947D02*
D03*
X149580D02*
D03*
X83925D02*
D03*
X90525D02*
D03*
X24870D02*
D03*
X31470D02*
D03*
X120053Y142561D02*
D03*
X113453D02*
D03*
X54398D02*
D03*
X60998D02*
D03*
D12*
X6325Y62536D02*
D03*
Y68048D02*
D03*
X525Y62536D02*
D03*
Y68048D02*
D03*
X6325Y-10464D02*
D03*
Y-4952D02*
D03*
X525Y-10464D02*
D03*
Y-4952D02*
D03*
X3425Y286448D02*
D03*
Y280936D02*
D03*
X40925Y275904D02*
D03*
Y270392D02*
D03*
X125014Y253748D02*
D03*
Y248236D02*
D03*
D13*
X70325Y230892D02*
D03*
Y224292D02*
D03*
X80225Y230892D02*
D03*
Y224292D02*
D03*
X90125Y230892D02*
D03*
Y224292D02*
D03*
X100025Y230892D02*
D03*
Y224292D02*
D03*
D14*
X7330Y229792D02*
D03*
D15*
X9889D02*
D03*
X12448D02*
D03*
X15007D02*
D03*
X17566D02*
D03*
X20125D02*
D03*
X22684D02*
D03*
X25243D02*
D03*
X7330Y255776D02*
D03*
X9889D02*
D03*
X12448D02*
D03*
X15007D02*
D03*
X17566D02*
D03*
X20125D02*
D03*
X22684D02*
D03*
X25243D02*
D03*
D16*
X22925Y280692D02*
D03*
D17*
X13475Y280692D02*
D03*
D18*
X13085Y274782D02*
D03*
Y286602D02*
D03*
D19*
X26037Y219492D02*
D03*
X20525D02*
D03*
X34469Y255792D02*
D03*
X39981D02*
D03*
X34569Y219492D02*
D03*
X40081D02*
D03*
X23325Y205392D02*
D03*
X28837D02*
D03*
X40081Y224492D02*
D03*
X34569D02*
D03*
X18081Y205392D02*
D03*
X12569D02*
D03*
X93681Y245492D02*
D03*
X88169D02*
D03*
D20*
X-1275Y323643D02*
D03*
X42032D02*
D03*
Y357895D02*
D03*
X-1275D02*
D03*
X134218Y323643D02*
D03*
X177525D02*
D03*
Y357895D02*
D03*
X134218D02*
D03*
D21*
X116025Y273677D02*
D03*
X111025D02*
D03*
X106025D02*
D03*
X101025D02*
D03*
X96025D02*
D03*
X91025D02*
D03*
X86025D02*
D03*
X81025D02*
D03*
X116025Y253992D02*
D03*
X111025D02*
D03*
X106025D02*
D03*
X101025D02*
D03*
X96025D02*
D03*
X91025D02*
D03*
X86025D02*
D03*
D22*
X81025D02*
D03*
M02*
